PathFileType	4	(X/Y/Z)	/Users/itak/Documents/Research/Walk-IL/dataset/trc/00043_00004.trc
DataRate	CameraRate	NumFrames	NumMarkers	Units	OrigDataRate	OrigDataStartFrame	OrigNumFrames
100.000000	100.000000	4	53	mm	100.000000	118	474
Frame#	Time	RPSI			LPSI			L3			STRN			T10			C7			CLAV			RBAK			LBAK			LSHO			LUPA			LAEL			LAOL			LWTS			LWPS			LFRA			LIFD			LHPS			LHTS			RSHO			RUPA			RAEL			RAOL			RWTS			RWPS			RFRA			RIFD			RHTS			RHPS			RBHD			LFHD			RFHD			LBHD			LHIP			RHIP			RASI			LASI			LKNE			LTHI			LANK			LTIP			LTOE			LMT1			LMT5			LHEE			RKNE			RTHI			RANK			RTIP			RTOE			RMT1			RMT5			RHEE			
		X1	Y1	Z1	X2	Y2	Z2	X3	Y3	Z3	X4	Y4	Z4	X5	Y5	Z5	X6	Y6	Z6	X7	Y7	Z7	X8	Y8	Z8	X9	Y9	Z9	X10	Y10	Z10	X11	Y11	Z11	X12	Y12	Z12	X13	Y13	Z13	X14	Y14	Z14	X15	Y15	Z15	X16	Y16	Z16	X17	Y17	Z17	X18	Y18	Z18	X19	Y19	Z19	X20	Y20	Z20	X21	Y21	Z21	X22	Y22	Z22	X23	Y23	Z23	X24	Y24	Z24	X25	Y25	Z25	X26	Y26	Z26	X27	Y27	Z27	X28	Y28	Z28	X29	Y29	Z29	X30	Y30	Z30	X31	Y31	Z31	X32	Y32	Z32	X33	Y33	Z33	X34	Y34	Z34	X35	Y35	Z35	X36	Y36	Z36	X37	Y37	Z37	X38	Y38	Z38	X39	Y39	Z39	X40	Y40	Z40	X41	Y41	Z41	X42	Y42	Z42	X43	Y43	Z43	X44	Y44	Z44	X45	Y45	Z45	X46	Y46	Z46	X47	Y47	Z47	X48	Y48	Z48	X49	Y49	Z49	X50	Y50	Z50	X51	Y51	Z51	X52	Y52	Z52	X53	Y53	Z53	

119	1.18	-1238.071899414062	1077.136474609375	183.7564086914062	-1243.360595703125	1065.056884765625	21.12953758239746	-1247.797119140625	1124.954833984375	91.64448547363281	-1031.701904296875	1323.0869140625	93.54301452636719	-1272.11279296875	1270.04150390625	83.65833282470703	-1228.836059570312	1538.467529296875	66.81224822998047	-1074.144897460938	1448.014526367188	84.47555541992188	-1276.635620117188	1401.588500976562	150.280517578125	-1235.062866210938	1493.269165039062	-31.68253707885742	-1127.590576171875	1504.6435546875	-98.90404510498047	-1143.72607421875	1377.99267578125	-179.1346893310547	-1133.16845703125	1157.150146484375	-195.8252258300781	-1201.7587890625	1147.00830078125	-115.8850479125977	-1056.445556640625	906.2444458007812	-118.5890808105469	-1124.907836914062	890.8344116210938	-171.7958526611328	-1119.02978515625	1041.154296875	-195.6220550537109	-1035.723022460938	723.3270874023438	-89.14230346679688	-1091.98046875	800.9639892578125	-163.0900726318359	-1033.187377929688	812.531982421875	-125.3591232299805	-1158.256469726562	1531.40283203125	247.7061920166016	-1170.999145507812	1464.780883789062	322.6434936523438	-1195.057250976562	1194.629272460938	356.4918823242188	-1195.569580078125	1164.45166015625	260.4016418457031	-1060.262084960938	937.0606079101562	329.9769592285156	-1123.3173828125	922.7938232421875	396.09033203125	-1180.20458984375	1119.0419921875	373.6010437011719	-1041.575439453125	751.1796264648438	320.4571838378906	-1024.878051757812	828.3727416992188	346.6935424804688	-1078.857177734375	824.2969360351562	398.3780212402344	-1174.248291015625	1724.245971679688	2.51936411857605	-1010.92236328125	1740.84228515625	146.8609008789062	-999.603759765625	1740.595581054688	48.8629150390625	-1185.034301757812	1722.00537109375	146.93017578125	-1148.657836914062	959.4824829101562	-87.49928283691406	-1124.006469726562	964.2402954101562	285.4166564941406	-1024.4765625	998.9734497070312	209.5217590332031	-1032.367553710938	1011.58740234375	-26.42339134216309	-1115.44091796875	516.3909301757812	-18.614990234375	-1133.127319335938	651.6392211914062	-59.91877746582031	-1221.83447265625	41.4938850402832	1.132065534591675	-1199.391967773438	286.1060485839844	-28.18062019348145	-1004.106079101562	41.71076965332031	73.16661834716797	-1064.07958984375	51.31777191162109	87.8828125	-1097.394897460938	41.49322509765625	-13.80844497680664	-1292.512451171875	50.14360427856445	51.44137954711914	-1116.295288085938	527.4546508789062	237.3690948486328	-1099.087280273438	795.6063842773438	282.7133483886719	-1240.085205078125	46.63355255126953	216.1988525390625	-1143.110229492188	404.1181335449219	237.189208984375	-1007.134216308594	46.72173690795898	174.0516204833984	-1070.936157226562	51.45392608642578	144.3140258789062	-1090.639404296875	44.64773559570312	238.7281036376953	-1294.617919921875	47.22952651977539	170.2693176269531	
120	1.19	-1237.31494140625	1077.098999023438	183.3351898193359	-1242.746459960938	1064.9482421875	20.70425796508789	-1247.144653320312	1124.808471679688	91.25533294677734	-1030.728271484375	1322.974975585938	93.02386474609375	-1271.490478515625	1269.960815429688	83.37236785888672	-1227.97705078125	1538.37646484375	66.51964569091797	-1073.1728515625	1447.898803710938	84.01742553710938	-1275.715698242188	1401.489624023438	150.0327606201172	-1234.356689453125	1493.1474609375	-31.92499160766602	-1127.03271484375	1504.432861328125	-99.34349060058594	-1143.51025390625	1377.751220703125	-179.5112762451172	-1133.09814453125	1156.93505859375	-196.1268768310547	-1201.3984375	1146.769775390625	-115.9152221679688	-1055.734619140625	906.147216796875	-119.2464294433594	-1124.578735351562	890.6675415039062	-172.0110931396484	-1118.882690429688	1040.932006835938	-195.9635162353516	-1034.273681640625	723.3148193359375	-90.05517578125	-1091.26025390625	800.8525390625	-163.5187072753906	-1032.35546875	812.5070190429688	-126.2384796142578	-1157.19384765625	1531.192993164062	247.3621978759766	-1169.868530273438	1464.530395507812	322.2936706542969	-1194.126098632812	1194.41259765625	356.0550231933594	-1194.557495117188	1164.222412109375	259.9595031738281	-1059.060913085938	936.9086303710938	329.8002014160156	-1122.30712890625	922.6041870117188	395.7106018066406	-1179.25830078125	1118.822387695312	373.2171325683594	-1040.185791015625	751.1116943359375	320.2955322265625	-1023.484741210938	828.3668823242188	346.60546875	-1077.652465820312	824.2338256835938	398.1676330566406	-1173.0205078125	1724.25830078125	2.206725597381592	-1009.776000976562	1740.5439453125	146.7592163085938	-998.3668212890625	1740.35546875	48.76808547973633	-1183.918212890625	1721.89599609375	146.6324462890625	-1148.150024414062	959.3662109375	-88.07188415527344	-1123.200927734375	964.2835083007812	284.8854370117188	-1023.622802734375	998.9083251953125	208.9692077636719	-1031.93115234375	1011.532287597656	-27.03121376037598	-1115.253295898438	516.2862548828125	-18.86779403686523	-1132.803344726562	651.5241088867188	-60.37820434570312	-1221.842895507812	41.43527984619141	1.064181923866272	-1199.146484375	285.9937438964844	-28.45115280151367	-1004.18310546875	41.77038192749023	73.18278503417969	-1064.09033203125	51.34462356567383	87.88513946533203	-1097.396362304688	41.48832702636719	-13.81245994567871	-1292.604736328125	50.16896820068359	51.31701278686523	-1115.627075195312	527.4188842773438	237.1160430908203	-1098.3173828125	795.5591430664062	282.3025817871094	-1240.094360351562	46.63102722167969	216.2085723876953	-1142.642333984375	404.1160583496094	237.0112152099609	-1007.156860351562	46.76729202270508	174.0529632568359	-1070.954711914062	51.47020721435547	144.3121337890625	-1090.63623046875	44.64113235473633	238.7052459716797	-1294.638427734375	47.21266174316406	170.2651977539062	
121	1.2	-1236.513793945312	1077.050903320312	182.9293975830078	-1242.128662109375	1064.830200195312	20.29427719116211	-1246.462768554688	1124.677978515625	90.87825775146484	-1029.779174804688	1322.857177734375	92.46355438232422	-1270.841186523438	1269.898803710938	83.09229278564453	-1227.081665039062	1538.301025390625	66.23260498046875	-1072.190795898438	1447.780517578125	83.53247833251953	-1274.734252929688	1401.404663085938	149.7966766357422	-1233.633422851562	1493.052734375	-32.18411636352539	-1126.44140625	1504.312133789062	-99.78145599365234	-1143.222778320312	1377.621704101562	-179.9073944091797	-1133.007690429688	1156.807250976562	-196.42138671875	-1200.984375	1146.656616210938	-115.9157333374023	-1055.09423828125	906.1082763671875	-119.9017486572266	-1124.326049804688	890.5880126953125	-172.1825103759766	-1118.762939453125	1040.802368164062	-196.2878875732422	-1032.98193359375	723.3383178710938	-90.93148040771484	-1090.65673828125	800.8187866210938	-163.8973388671875	-1031.611572265625	812.5264282226562	-127.0988311767578	-1156.085083007812	1531.033325195312	246.9862976074219	-1168.67431640625	1464.334716796875	321.9231872558594	-1193.172119140625	1194.2578125	355.5762023925781	-1193.529052734375	1164.066162109375	259.4718322753906	-1057.8974609375	936.7709350585938	329.5704650878906	-1121.330444335938	922.4508666992188	395.2826843261719	-1178.28955078125	1118.666870117188	372.7913818359375	-1038.93359375	751.07861328125	320.0278015136719	-1022.169494628906	828.3875122070312	346.4042053222656	-1076.52294921875	824.1912841796875	397.85400390625	-1171.780029296875	1724.289672851562	1.874563455581665	-1008.640869140625	1740.248779296875	146.6476593017578	-997.114990234375	1740.137573242188	48.67988967895508	-1182.812255859375	1721.805297851562	146.3056488037109	-1147.677001953125	959.2471923828125	-88.66390991210938	-1122.319946289062	964.3013305664062	284.3447570800781	-1022.720397949219	998.8509521484375	208.3920745849609	-1031.47265625	1011.480407714844	-27.65900611877441	-1114.977905273438	516.1875610351562	-19.10332870483398	-1132.431396484375	651.4119873046875	-60.86104202270508	-1221.849853515625	41.36852645874023	0.9901263117790222	-1198.851806640625	285.8769226074219	-28.73533248901367	-1004.271850585938	41.83838653564453	73.20207977294922	-1064.099975585938	51.37783050537109	87.88677215576172	-1097.41064453125	41.49153137207031	-13.82378101348877	-1292.691040039062	50.19125366210938	51.19334030151367	-1114.809448242188	527.3843383789062	236.8479461669922	-1097.469360351562	795.508056640625	281.8805236816406	-1240.101196289062	46.62893295288086	216.2229309082031	-1142.014282226562	404.0798034667969	236.8117218017578	-1007.180480957031	46.81927490234375	174.0552520751953	-1070.970947265625	51.49150085449219	144.3097076416016	-1090.640502929688	44.63224029541016	238.6824035644531	-1294.665649414062	47.20577621459961	170.2604064941406	
122	1.21	-1235.674194335938	1076.992553710938	182.5390777587891	-1241.5107421875	1064.709228515625	19.90355682373047	-1245.7568359375	1124.56884765625	90.51261901855469	-1028.853515625	1322.729370117188	91.86057281494141	-1270.154663085938	1269.858642578125	82.81663513183594	-1226.130859375	1538.236328125	65.96226501464844	-1071.197998046875	1447.663818359375	83.02313995361328	-1273.70068359375	1401.336059570312	149.5644989013672	-1232.896240234375	1492.989379882812	-32.45769119262695	-1125.819702148438	1504.276611328125	-100.2167587280273	-1142.863159179688	1377.598388671875	-180.3153686523438	-1132.8740234375	1156.763916015625	-196.7188415527344	-1200.505249023438	1146.660278320312	-115.9127883911133	-1054.52685546875	906.1273193359375	-120.5329513549805	-1124.112182617188	890.5895385742188	-172.3279724121094	-1118.64111328125	1040.763427734375	-196.6029357910156	-1031.889526367188	723.390869140625	-91.7252197265625	-1090.169921875	800.857177734375	-164.2253265380859	-1030.947998046875	812.5864868164062	-127.8991241455078	-1154.927001953125	1530.912231445312	246.5819396972656	-1167.429321289062	1464.1845703125	321.5292663574219	-1192.186889648438	1194.159301757812	355.0714721679688	-1192.474853515625	1163.974243164062	258.962158203125	-1056.783569335938	936.6555786132812	329.27587890625	-1120.36962890625	922.3359985351562	394.820556640625	-1177.296142578125	1118.57080078125	372.3294982910156	-1037.818359375	751.0684204101562	319.6580810546875	-1020.982421875	828.4080200195312	346.0804138183594	-1075.469604492188	824.1622314453125	397.4406127929688	-1170.520874023438	1724.333374023438	1.527304172515869	-1007.51708984375	1739.963989257812	146.5254211425781	-995.8505249023438	1739.949462890625	48.59232711791992	-1181.719116210938	1721.732299804688	145.9486846923828	-1147.232421875	959.1258544921875	-89.26287841796875	-1121.364013671875	964.2861328125	283.7954711914062	-1021.783874511719	998.79443359375	207.7884521484375	-1031.002075195312	1011.42431640625	-28.31393623352051	-1114.59912109375	516.0965576171875	-19.32452964782715	-1132.000854492188	651.3030395507812	-61.35818862915039	-1221.8544921875	41.29632568359375	0.9132037162780762	-1198.509155273438	285.7577209472656	-29.02677345275879	-1004.367248535156	41.91067123413086	73.22564697265625	-1064.109985351562	51.41385269165039	87.88728332519531	-1097.447998046875	41.51075744628906	-13.84697532653809	-1292.760498046875	50.20317840576172	51.08075332641602	-1113.806640625	527.3443603515625	236.5542907714844	-1096.537353515625	795.4598388671875	281.4421081542969	-1240.10546875	46.62891387939453	216.2406768798828	-1141.197509765625	403.9962158203125	236.5877075195312	-1007.203369140625	46.87606811523438	174.0575408935547	-1070.984497070312	51.51636505126953	144.3051147460938	-1090.654174804688	44.62319946289062	238.6614379882812	-1294.695556640625	47.208984375	170.2564392089844	
